<?xml version="1.0" encoding="UTF-8"?>
<svg version="1.1" xmlns="http://www.w3.org/2000/svg" width="500" height="500">
<path d="M0 0 C0.495 1.485 0.495 1.485 1 3 C0.32195312 2.7834375 -0.35609375 2.566875 -1.0546875 2.34375 C-10.23559914 -0.40289393 -17.17467829 -1.79837658 -25.9375 2.75 C-29.53262136 4.79844325 -31.58341195 6.68169998 -34 10 C-34.66 10 -35.32 10 -36 10 C-39.11443701 20.08484364 -40.54749586 28.09492805 -36 38 C-32.0422935 44.05296289 -26.59787865 47.85610127 -19.58203125 49.6015625 C-13.16967825 50.47829121 -7.26204924 49.44050943 -1 48 C-1 47.34 -1 46.68 -1 46 C-0.01 46 0.98 46 2 46 C2 45.34 2 44.68 2 44 C2.97850195 42.97895449 3.97980427 41.9793879 5 41 C5.495 40.01 5.495 40.01 6 39 C6.99 39 7.98 39 9 39 C8.49890042 43.38462134 7.01704885 45.8000997 4 49 C3.34 49 2.68 49 2 49 C1.67 49.99 1.34 50.98 1 52 C-1.58203125 53.5703125 -1.58203125 53.5703125 -4.8125 55.125 C-6.39998047 55.90230469 -6.39998047 55.90230469 -8.01953125 56.6953125 C-16.12814157 60.24482213 -26.03995205 60.46607332 -34.375 57.4375 C-44.25027827 52.79984879 -49.3826209 45.60576631 -53.3125 35.6875 C-55.25360479 25.27611974 -54.17005034 16.83792116 -48.64453125 7.77734375 C-42.62817754 -0.85201076 -35.20105434 -4.47688543 -25.08203125 -6.6171875 C-16.43266087 -7.69150727 -7.09987183 -5.01605201 0 0 Z " fill="#F3DD61" transform="translate(278,233)"/>
<path d="M0 0 C3.29164829 -0.02895225 6.58326399 -0.0467823 9.875 -0.0625 C10.81214844 -0.07087891 11.74929687 -0.07925781 12.71484375 -0.08789062 C14.05869141 -0.09272461 14.05869141 -0.09272461 15.4296875 -0.09765625 C16.67081299 -0.10551147 16.67081299 -0.10551147 17.93701172 -0.11352539 C20 0 20 0 22 1 C22 2.65 22 4.3 22 6 C19.7089095 6.19441368 17.41709663 6.38033135 15.125 6.5625 C13.21074219 6.71912109 13.21074219 6.71912109 11.2578125 6.87890625 C8 7 8 7 6 6 C6.33 7.98 6.66 9.96 7 12 C11.29 12.33 15.58 12.66 20 13 C20 14.65 20 16.3 20 18 C15.38 18 10.76 18 6 18 C6.33 19.98 6.66 21.96 7 24 C11.95 24.33 16.9 24.66 22 25 C22 26.65 22 28.3 22 30 C14.63512596 30.99862699 7.42686315 31.10331031 0 31 C-0.77782776 22.01331139 -1.53638657 13.21780192 -0.4921875 4.234375 C-0.40050293 3.43741211 -0.30881836 2.64044922 -0.21435547 1.81933594 C-0.14361816 1.21895508 -0.07288086 0.61857422 0 0 Z " fill="#FCD32E" transform="translate(59,244)"/>
<path d="M0 0 C3.06398451 -0.13530844 6.12197126 -0.2342407 9.1875 -0.3125 C10.05181641 -0.35439453 10.91613281 -0.39628906 11.80664062 -0.43945312 C16.43332616 -0.52808695 18.32773888 -0.54142413 22.05078125 2.45703125 C22.69402344 3.29621094 23.33726562 4.13539063 24 5 C24.33 5.33 24.66 5.66 25 6 C25.27276494 10.09147404 25.38680604 12.97610166 23.9375 16.8125 C21.3609431 19.72151586 18.76207709 21.21892114 15 22 C11.93776399 21.94644738 9.00719415 21.56597985 6 21 C6.33 21.66 6.66 22.32 7 23 C7.039992 24.99960012 7.04346799 27.00047242 7 29 C4.69 29.33 2.38 29.66 0 30 C-1.42336877 27.15326245 -1.00758837 24.85384653 -0.87890625 21.6796875 C-0.83056641 20.42285156 -0.78222656 19.16601562 -0.73242188 17.87109375 C-0.67634766 16.55238281 -0.62027344 15.23367188 -0.5625 13.875 C-0.50927587 12.53517562 -0.45653549 11.19533192 -0.40429688 9.85546875 C-0.27429992 6.57009113 -0.13932314 3.28499322 0 0 Z M6 5 C6 8.63 6 12.26 6 16 C12.40079188 16.50780964 12.40079188 16.50780964 18 14 C19.16977494 11.65127469 19.16977494 11.65127469 19 9 C17.73637301 6.48292843 17.73637301 6.48292843 15 5 C11.91758803 4.66633685 9.11702098 4.81664582 6 5 Z " fill="#F5D143" transform="translate(168,245)"/>
<path d="M0 0 C-0.61277612 2.96175123 -1.25372522 4.38058783 -3 7 C-3.66 7 -4.32 7 -5 7 C-8.11443701 17.08484364 -9.54749586 25.09492805 -5 35 C-1.18683737 40.83189578 4.33036025 44.83899268 11.13671875 46.53125 C13.22422046 46.86273214 13.22422046 46.86273214 16 47 C16 47.66 16 48.32 16 49 C10.46904267 50.84365244 4.9347584 50.56708436 -0.625 48.9375 C-7.94721537 44.73400599 -12.8515234 40.50247277 -15.359375 32.2265625 C-16.8609823 24.66358915 -18.01078365 16.78045524 -14.2734375 9.75390625 C-12.31513843 7.2437229 -10.44276754 5.04054477 -8 3 C-7.34 3 -6.68 3 -6 3 C-6 2.34 -6 1.68 -6 1 C-4 0 -4 0 0 0 Z " fill="#CFA23E" transform="translate(247,236)"/>
<path d="M0 0 C0.76441406 -0.01417969 1.52882812 -0.02835938 2.31640625 -0.04296875 C4.4375 0.1875 4.4375 0.1875 7.4375 2.1875 C7.1075 4.1675 6.7775 6.1475 6.4375 8.1875 C5.59445313 7.94193359 5.59445313 7.94193359 4.734375 7.69140625 C2.30690944 7.15885003 0.16860319 7.08851319 -2.3125 7.125 C-3.51132813 7.13853516 -3.51132813 7.13853516 -4.734375 7.15234375 C-5.63929688 7.16974609 -5.63929688 7.16974609 -6.5625 7.1875 C-6.8925 8.5075 -7.2225 9.8275 -7.5625 11.1875 C-5.9125 11.1875 -4.2625 11.1875 -2.5625 11.1875 C-2.5625 11.8475 -2.5625 12.5075 -2.5625 13.1875 C-1.2321875 13.31125 -1.2321875 13.31125 0.125 13.4375 C3.94928971 14.30337692 5.71549518 15.38772361 8.4375 18.1875 C9.4375 20.625 9.4375 20.625 9.4375 23.1875 C8.17820144 26.12586331 6.79906356 27.85983303 4.4375 30 C-1.15603052 32.21410583 -7.19764151 32.16126526 -12.75 29.875 C-13.348125 29.318125 -13.94625 28.76125 -14.5625 28.1875 C-14.5625 25.1875 -14.5625 25.1875 -13.0625 23.5 C-12.5675 23.066875 -12.0725 22.63375 -11.5625 22.1875 C-10.840625 22.496875 -10.11875 22.80625 -9.375 23.125 C-5.32705389 24.65422409 -2.73352342 25.57784114 1.4375 24.1875 C2.17073796 22.17241642 2.17073796 22.17241642 2.4375 20.1875 C1.6125 20.084375 0.7875 19.98125 -0.0625 19.875 C-8.07957971 18.30021649 -8.07957971 18.30021649 -11.5625 16.1875 C-13.81239167 12.61414264 -14.85616643 10.62320257 -14 6.4375 C-12.06825995 3.41390689 -10.17568741 1.68202891 -6.71484375 0.62109375 C-4.43170315 0.16115073 -2.32793941 0.01969492 0 0 Z " fill="#F2D149" transform="translate(213.5625,243.8125)"/>
<path d="M0 0 C0 0.99 0 1.98 0 3 C-0.66 3 -1.32 3 -2 3 C-2 3.66 -2 4.32 -2 5 C-2.556875 4.855625 -3.11375 4.71125 -3.6875 4.5625 C-4.450625 4.376875 -5.21375 4.19125 -6 4 C-6.78375 3.79375 -7.5675 3.5875 -8.375 3.375 C-11.60745849 2.91322022 -13.86788055 3.04674626 -17 4 C-19.28011238 6.66013111 -19.92571824 8.55430945 -20.5 12 C-20.19351026 15.15964902 -20.19351026 15.15964902 -18 17.875 C-13.88643706 20.78877375 -11.97164984 20.55240554 -7 20 C-4.59442147 19.13734032 -4.59442147 19.13734032 -3 18 C-2.01 18.66 -1.02 19.32 0 20 C-1.39813007 23.37881434 -2.82887791 25.15017878 -6 27 C-11.47757294 28.78339584 -15.96053343 27.41745629 -21 25 C-24.6897264 22.01681695 -26.60989767 19.50808885 -28 15 C-27.87439672 9.44390186 -27.0165329 4.49490133 -23.875 -0.125 C-16.58857633 -4.87701544 -7.11219355 -5.77865726 0 0 Z " fill="#F3CF43" transform="translate(115,248)"/>
<path d="M0 0 C2.825625 -0.0825 5.65125 -0.165 8.5625 -0.25 C9.43849854 -0.28641602 10.31449707 -0.32283203 11.21704102 -0.36035156 C16.99719768 -0.44129334 20.2603173 0.66693281 25 4 C28.03340917 7.74120465 28.92008027 11.20481591 29 16 C27.81539144 20.85522665 25.73275674 24.94641345 21.8125 28.125 C15.3908111 31.72261921 6.89916878 29.70069683 0 29 C0 19.43 0 9.86 0 0 Z M4 3 C4 10.59 4 18.18 4 26 C12.1465038 26.74619987 12.1465038 26.74619987 19.625 24.1875 C22.05341247 21.9508043 23.79815923 20.25329035 24.3359375 16.9140625 C24.40324896 12.9696108 24.31879692 10.57628675 22.375 7.0625 C16.55804478 2.01093363 11.92640977 3 4 3 Z " fill="#FAFCFD" transform="translate(261,245)"/>
<path d="M0 0 C1.65 0 3.3 0 5 0 C6.71612092 3.78710461 8.42489841 7.57740964 10.12695312 11.37084961 C10.70697617 12.66081696 11.28899489 13.94988891 11.87304688 15.23803711 C12.71230159 17.08996398 13.54432208 18.94499439 14.375 20.80078125 C14.87773437 21.91622314 15.38046875 23.03166504 15.8984375 24.1809082 C17 27 17 27 17 30 C15.1875 29.875 15.1875 29.875 13 29 C12.62875 28.01 12.2575 27.02 11.875 26 C11.25625 25.01 10.6375 24.02 10 23 C7.01526372 22.36678097 4.797088 22.11457349 1.8125 22.125 C1.06291016 22.104375 0.31332031 22.08375 -0.45898438 22.0625 C-2.30550787 22.01545482 -4.15288219 22.00425113 -6 22 C-6.66 24.31 -7.32 26.62 -8 29 C-9.65 29 -11.3 29 -13 29 C-11.58746609 25.66490073 -10.16921415 22.33226143 -8.75 19 C-8.35425781 18.06542969 -7.95851563 17.13085938 -7.55078125 16.16796875 C-5.20812718 10.67617314 -2.73019 5.31009432 0 0 Z M2 5 C1.32332002 6.24460783 0.65905281 7.49596896 0 8.75 C-0.37125 9.44609375 -0.7425 10.1421875 -1.125 10.859375 C-2.25224649 13.23167757 -2.25224649 13.23167757 -2 17 C-2.99 17.495 -2.99 17.495 -4 18 C-0.04 18 3.92 18 8 18 C6.58192622 13.52761347 4.88695626 9.28853694 3 5 C2.67 5 2.34 5 2 5 Z " fill="#FCFDFE" transform="translate(400,245)"/>
<path d="M0 0 C0.99 0.7115625 0.99 0.7115625 2 1.4375 C1.67 2.4275 1.34 3.4175 1 4.4375 C-1.16874252 3.93146008 -2.99967627 3.43766187 -5 2.4375 C-9.74350792 2.16383608 -13.72359606 2.2495724 -18 4.4375 C-20.6432882 9.26437411 -19.93889887 13.23087898 -19 18.4375 C-18.33131686 21.55082248 -18.33131686 21.55082248 -15.9375 22.625 C-11.74981025 23.78329716 -7.00365256 24.43932628 -3 22.4375 C-2.53248212 20.08150765 -2.53248212 20.08150765 -2.375 17.375 C-2.30023438 16.45589844 -2.22546875 15.53679687 -2.1484375 14.58984375 C-2.09945313 13.87957031 -2.05046875 13.16929687 -2 12.4375 C-0.68 12.4375 0.64 12.4375 2 12.4375 C2.13504138 14.37309313 2.23201129 16.311372 2.3125 18.25 C2.37050781 19.32894531 2.42851562 20.40789062 2.48828125 21.51953125 C2 24.4375 2 24.4375 -0.28125 26.26953125 C-5.42548903 28.47948451 -9.87642333 29.068532 -15.1875 27.375 C-19.13770186 25.63317871 -22.08817484 23.36781867 -24 19.4375 C-25.25350679 14.6492598 -25.44586428 10.77509285 -23.875 6.0625 C-17.90652296 -2.29336786 -9.07082086 -4.72438586 0 0 Z " fill="#FBFDFE" transform="translate(337,246.5625)"/>
<path d="M0 0 C0 7.59 0 15.18 0 23 C3.3 23 6.6 23 10 23 C11.32 23.33 12.64 23.66 14 24 C14 25.65 14 27.3 14 29 C6.97360585 29.74805717 0.06608191 30.13794954 -7 30 C-8.62176822 7.54474779 -8.62176822 7.54474779 -7 0 C-5 -1 -5 -1 0 0 Z " fill="#F9D62D" transform="translate(130,245)"/>
<path d="M0 0 C0.66 0 1.32 0 2 0 C2.09796875 0.83402344 2.1959375 1.66804688 2.296875 2.52734375 C3.21695343 9.45172713 4.25818937 15.97802351 8 22 C8.66 22.33 9.32 22.66 10 23 C10 23.66 10 24.32 10 25 C10.5775 25.26683594 11.155 25.53367187 11.75 25.80859375 C14.78998491 27.41830798 17.31939906 29.51881683 20 31.66015625 C23.77925437 34.19196143 27.46663282 34.18234501 31.9375 34.25 C32.95714844 34.27578125 33.97679687 34.3015625 35.02734375 34.328125 C39.41256174 33.84407991 42.0016411 32.09497428 44.9375 28.875 C47.54682655 26.50288496 49.54621412 26.31398053 53 26 C53 25.34 53 24.68 53 24 C53.99 24 54.98 24 56 24 C56 23.34 56 22.68 56 22 C56.97850195 20.97895449 57.97980427 19.9793879 59 19 C59.33 18.34 59.66 17.68 60 17 C60.99 17 61.98 17 63 17 C62.49890042 21.38462134 61.01704885 23.8000997 58 27 C57.34 27 56.68 27 56 27 C55.505 28.485 55.505 28.485 55 30 C52.41796875 31.5703125 52.41796875 31.5703125 49.1875 33.125 C47.60001953 33.90230469 47.60001953 33.90230469 45.98046875 34.6953125 C37.87185843 38.24482213 27.96004795 38.46607332 19.625 35.4375 C9.73828043 30.7944757 4.50422179 23.55867613 0.6875 13.5625 C-0.19319846 8.99888071 -0.16772379 4.63104013 0 0 Z " fill="#D19E3C" transform="translate(224,255)"/>
<path d="M0 0 C6.30782486 0.41137988 11.71452158 2.4965986 17 6 C17.495 7.485 17.495 7.485 18 9 C17.32195312 8.7834375 16.64390625 8.566875 15.9453125 8.34375 C4.20876084 4.83253787 -3.09988062 5.19765509 -14 11 C-14 10.34 -14 9.68 -14 9 C-15.98 9.33 -17.96 9.66 -20 10 C-20 10.66 -20 11.32 -20 12 C-21.6436814 13.68933922 -23.3142876 15.35259924 -25 17 C-29.28723793 21.3352294 -29.78141414 24.98934447 -30.25 30.8125 C-30.32734375 31.60076172 -30.4046875 32.38902344 -30.484375 33.20117188 C-30.67167287 35.13268114 -30.83796228 37.06620779 -31 39 C-33 37 -33 37 -33.265625 34.2421875 C-33.19313027 18.61957226 -33.19313027 18.61957226 -28.75 13.3125 C-27.8425 12.549375 -26.935 11.78625 -26 11 C-24.63875 9.6696875 -24.63875 9.6696875 -23.25 8.3125 C-15.26112751 2.62810996 -4.47282165 3.44167757 5 3 C2.525 2.01 2.525 2.01 0 1 C0 0.67 0 0.34 0 0 Z " fill="#FAE167" transform="translate(261,227)"/>
<path d="M0 0 C1.03115279 3.26913624 0.9638984 5.86041348 0.5625 9.25 C0.46066406 10.14203125 0.35882813 11.0340625 0.25390625 11.953125 C0.17011719 12.62859375 0.08632812 13.3040625 0 14 C1.175625 14.433125 1.175625 14.433125 2.375 14.875 C5 16 5 16 7 18 C10.13545766 18.02135378 10.13545766 18.02135378 13.625 17.625 C15.40777344 17.45871094 15.40777344 17.45871094 17.2265625 17.2890625 C18.14179687 17.19367188 19.05703125 17.09828125 20 17 C19.6875 18.875 19.6875 18.875 19 21 C15.1944291 23.53704726 12.36746407 24.4634718 7.78515625 23.56640625 C1.72269898 21.7809571 -2.01490452 19.24833806 -5.375 13.75 C-6.27194526 9.80344086 -6.14118639 5.89841525 -5 2 C-2 0 -2 0 0 0 Z " fill="#F5D23F" transform="translate(93,252)"/>
<path d="M0 0 C3.29164829 -0.02895225 6.58326399 -0.0467823 9.875 -0.0625 C10.81214844 -0.07087891 11.74929687 -0.07925781 12.71484375 -0.08789062 C14.05869141 -0.09272461 14.05869141 -0.09272461 15.4296875 -0.09765625 C16.67081299 -0.10551147 16.67081299 -0.10551147 17.93701172 -0.11352539 C20 0 20 0 22 1 C22 2.65 22 4.3 22 6 C19.7089095 6.19441368 17.41709663 6.38033135 15.125 6.5625 C13.21074219 6.71912109 13.21074219 6.71912109 11.2578125 6.87890625 C8 7 8 7 6 6 C6.33 7.98 6.66 9.96 7 12 C11.29 12.33 15.58 12.66 20 13 C20 14.65 20 16.3 20 18 C15.38 18 10.76 18 6 18 C6.33 19.98 6.66 21.96 7 24 C6.34 23.34 5.68 22.68 5 22 C5 20.35 5 18.7 5 17 C9.29 17 13.58 17 18 17 C18 16.34 18 15.68 18 15 C16.84371094 15.01740234 16.84371094 15.01740234 15.6640625 15.03515625 C14.15972656 15.04869141 14.15972656 15.04869141 12.625 15.0625 C11.62726563 15.07410156 10.62953125 15.08570313 9.6015625 15.09765625 C7 15 7 15 5 14 C3.94647157 11.69034152 2.94280904 9.3570226 2 7 C1.34 7 0.68 7 0 7 C0 4.69 0 2.38 0 0 Z " fill="#EECD4D" transform="translate(59,244)"/>
<path d="M0 0 C8.25 0 16.5 0 25 0 C25 0.99 25 1.98 25 3 C21.7 3 18.4 3 15 3 C15 11.58 15 20.16 15 29 C13.35 29.33 11.7 29.66 10 30 C10.33 21.09 10.66 12.18 11 3 C7.37 3 3.74 3 0 3 C0 2.01 0 1.02 0 0 Z " fill="#FDFEFE" transform="translate(361,245)"/>
<path d="M0 0 C2.31 0 4.62 0 7 0 C7.02911003 3.89581756 7.04683587 7.791607 7.0625 11.6875 C7.07087891 12.79029297 7.07925781 13.89308594 7.08789062 15.02929688 C7.09111328 16.09599609 7.09433594 17.16269531 7.09765625 18.26171875 C7.10289307 19.24100342 7.10812988 20.22028809 7.11352539 21.22924805 C7.00308543 23.92469572 6.60534166 26.37545639 6 29 C4.02 29.33 2.04 29.66 0 30 C-1.11984119 26.64047644 -1.028066 24.33089543 -0.87890625 20.80078125 C-0.83056641 19.59228516 -0.78222656 18.38378906 -0.73242188 17.13867188 C-0.67634766 15.87603516 -0.62027344 14.61339844 -0.5625 13.3125 C-0.51029297 12.03826172 -0.45808594 10.76402344 -0.40429688 9.45117188 C-0.27449555 6.30053961 -0.1395244 3.15021423 0 0 Z " fill="#F3D24A" transform="translate(151,245)"/>
<path d="M0 0 C6.27 0 12.54 0 19 0 C19 0.33 19 0.66 19 1 C13.06 1 7.12 1 1 1 C1 6.94 1 12.88 1 19 C1.99 18.67 2.98 18.34 4 18 C4.33 13.71 4.66 9.42 5 5 C7.78637633 9.1795645 6.79562512 11.14668677 6 16 C8.64 16 11.28 16 14 16 C14 16.66 14 17.32 14 18 C12.02 18.33 10.04 18.66 8 19 C10.64 19.33 13.28 19.66 16 20 C16 19.34 16 18.68 16 18 C17.98 18 19.96 18 22 18 C19.61567602 20.38432398 18.26203756 21.09773429 15 22 C11.96416547 21.87265795 8.99813095 21.4833588 6 21 C6.33 21.66 6.66 22.32 7 23 C7.039992 24.99960012 7.04346799 27.00047242 7 29 C4.69 29.33 2.38 29.66 0 30 C-1.42336877 27.15326245 -1.00758837 24.85384653 -0.87890625 21.6796875 C-0.83056641 20.42285156 -0.78222656 19.16601562 -0.73242188 17.87109375 C-0.67634766 16.55238281 -0.62027344 15.23367188 -0.5625 13.875 C-0.50927587 12.53517562 -0.45653549 11.19533192 -0.40429688 9.85546875 C-0.27430107 6.5701203 -0.13775941 3.28503207 0 0 Z " fill="#F2CF41" transform="translate(168,245)"/>
<path d="M0 0 C1.32 0 2.64 0 4 0 C4 8.58 4 17.16 4 26 C9.28 26 14.56 26 20 26 C20 26.99 20 27.98 20 29 C13.4 29 6.8 29 0 29 C0 19.43 0 9.86 0 0 Z " fill="#FCFDFE" transform="translate(425,245)"/>
<path d="M0 0 C0 0.33 0 0.66 0 1 C-0.589021 1.01458252 -1.17804199 1.02916504 -1.78491211 1.04418945 C-4.50303802 1.11953764 -7.22004942 1.21590384 -9.9375 1.3125 C-10.86369141 1.33505859 -11.78988281 1.35761719 -12.74414062 1.38085938 C-20.4734161 1.67918229 -27.82476858 2.44173354 -33.4375 8.1875 C-34.7059375 9.5796875 -34.7059375 9.5796875 -36 11 C-36.66 11 -37.32 11 -38 11 C-38.30744141 11.92232422 -38.30744141 11.92232422 -38.62109375 12.86328125 C-39.74739583 16.2421875 -40.87369792 19.62109375 -42 23 C-42.66 23 -43.32 23 -44 23 C-42.7130632 13.99144238 -38.84568027 7.74669513 -31.625 2.125 C-21.01142389 -4.79171252 -11.31329109 -4.41026602 0 0 Z " fill="#CD9C41" transform="translate(269,230)"/>
<path d="M0 0 C-0.61277612 2.96175123 -1.25372522 4.38058783 -3 7 C-3.66 7 -4.32 7 -5 7 C-6.85102717 13.33307408 -8.37968409 19.42465139 -9 26 C-9.33 25.01 -9.66 24.02 -10 23 C-10.66 22.67 -11.32 22.34 -12 22 C-11.67 18.37 -11.34 14.74 -11 11 C-11.66 11 -12.32 11 -13 11 C-13 11.99 -13 12.98 -13 14 C-13.66 14 -14.32 14 -15 14 C-15.33 15.32 -15.66 16.64 -16 18 C-16.37470002 14.64583043 -16.14333802 13.2283408 -14.3203125 10.32421875 C-13.59585938 9.45410156 -12.87140625 8.58398438 -12.125 7.6875 C-11.40570313 6.80449219 -10.68640625 5.92148438 -9.9453125 5.01171875 C-9.30335938 4.34785156 -8.66140625 3.68398437 -8 3 C-7.34 3 -6.68 3 -6 3 C-6 2.34 -6 1.68 -6 1 C-4 0 -4 0 0 0 Z " fill="#D7AB43" transform="translate(247,236)"/>
<path d="M0 0 C1.051875 0.433125 1.051875 0.433125 2.125 0.875 C7.60238397 3.01832416 11.93437024 4.24623734 17.875 4.125 C19.02742188 4.10695313 20.17984375 4.08890625 21.3671875 4.0703125 C22.23601562 4.04710937 23.10484375 4.02390625 24 4 C24.33 3.34 24.66 2.68 25 2 C26.98 2 28.96 2 31 2 C26.375 7.875 26.375 7.875 23 9 C14.50678476 9.64568303 8.81516303 8.96317725 1.5625 4.5 C1.046875 4.005 0.53125 3.51 0 3 C0 2.01 0 1.02 0 0 Z " fill="#F8DB60" transform="translate(239,281)"/>
<path d="M0 0 C1.32 0 2.64 0 4 0 C4 9.57 4 19.14 4 29 C2.35 29 0.7 29 -1 29 C-0.67 19.43 -0.34 9.86 0 0 Z " fill="#FCFEFE" transform="translate(350,245)"/>
<path d="M0 0 C1.32 0 2.64 0 4 0 C4 9.57 4 19.14 4 29 C2.68 29 1.36 29 0 29 C0 19.43 0 9.86 0 0 Z " fill="#FDFEFF" transform="translate(299,245)"/>
<path d="M0 0 C0.46148437 0.38671875 0.92296875 0.7734375 1.3984375 1.171875 C7.03211354 5.66990883 13.56656038 10 21 10 C21 10.66 21 11.32 21 12 C15.51198456 13.82933848 9.40962596 13.85816924 4 11.6875 C1 10 1 10 -1 7 C-1 6.01 -1 5.02 -1 4 C-0.34 4 0.32 4 1 4 C0.67 2.68 0.34 1.36 0 0 Z " fill="#C39830" transform="translate(242,273)"/>
<path d="M0 0 C0.33 0 0.66 0 1 0 C1 1.98 1 3.96 1 6 C3.64 5.67 6.28 5.34 9 5 C8.01 4.01 7.02 3.02 6 2 C11.28 2 16.56 2 22 2 C22 3.65 22 5.3 22 7 C14.63512596 7.99862699 7.42686315 8.10331031 0 8 C0 5.36 0 2.72 0 0 Z " fill="#F0D156" transform="translate(59,267)"/>
<path d="M0 0 C5.13233264 2.56616632 6.70716291 5.36009319 10 10 C10.33 6.7 10.66 3.4 11 0 C11.66 0 12.32 0 13 0 C13 4.95 13 9.9 13 15 C9.13209997 13.06604999 8.12365764 12.2196994 5.75 8.875 C4.38875 6.956875 4.38875 6.956875 3 5 C2.67 8.3 2.34 11.6 2 15 C1.34 15 0.68 15 0 15 C0 10.05 0 5.1 0 0 Z " fill="#E8F0F9" transform="translate(253,303)"/>
<path d="M0 0 C3.96 0 7.92 0 12 0 C11.67 0.66 11.34 1.32 11 2 C9.02 2.33 7.04 2.66 5 3 C4.67 7.29 4.34 11.58 4 16 C2.68 16.33 1.36 16.66 0 17 C0 11.39 0 5.78 0 0 Z " fill="#FCD42D" transform="translate(169,247)"/>
<path d="M0 0 C0.66 0 1.32 0 2 0 C2.042721 1.66611905 2.04063832 3.33382885 2 5 C1.67 5.33 1.34 5.66 1 6 C0.90031328 8.10221693 0.87031797 10.20792604 0.875 12.3125 C0.87242187 13.46363281 0.86984375 14.61476563 0.8671875 15.80078125 C0.9760642 18.42342882 1.08179204 20.55338259 2 23 C2.66 23.33 3.32 23.66 4 24 C2.68 24.33 1.36 24.66 0 25 C-3.7209976 18.02312949 -4.21574145 10.63001288 -2 3 C-1.34 3 -0.68 3 0 3 C0 2.01 0 1.02 0 0 Z " fill="#C79B30" transform="translate(234,247)"/>
<path d="M0 0 C3.63 0 7.26 0 11 0 C11 0.66 11 1.32 11 2 C8.36 2 5.72 2 3 2 C2.67 3.65 2.34 5.3 2 7 C4.64 7 7.28 7 10 7 C10 7.33 10 7.66 10 8 C7.36 8 4.72 8 2 8 C2 9.98 2 11.96 2 14 C4.97 14 7.94 14 11 14 C11 14.66 11 15.32 11 16 C9.54176788 16.0270043 8.08339325 16.04639787 6.625 16.0625 C5.81289062 16.07410156 5.00078125 16.08570313 4.1640625 16.09765625 C2 16 2 16 0 15 C0 10.05 0 5.1 0 0 Z " fill="#F0F6FB" transform="translate(237,303)"/>
<path d="M0 0 C0 5.28 0 10.56 0 16 C-0.33 16 -0.66 16 -1 16 C-1.33 13.03 -1.66 10.06 -2 7 C-2.99 8.98 -3.98 10.96 -5 13 C-7 11 -7 11 -7.1953125 8.3984375 C-7.17210938 7.40070313 -7.14890625 6.40296875 -7.125 5.375 C-7.10695313 4.37210938 -7.08890625 3.36921875 -7.0703125 2.3359375 C-7.04710938 1.56507813 -7.02390625 0.79421875 -7 0 C-5 -1 -5 -1 0 0 Z " fill="#F2D748" transform="translate(130,245)"/>
<path d="M0 0 C0.99 0 1.98 0 3 0 C2.49890042 4.38462134 1.01704885 6.8000997 -2 10 C-2.66 10 -3.32 10 -4 10 C-4.33 10.99 -4.66 11.98 -5 13 C-7.5625 14.1875 -7.5625 14.1875 -10 15 C-9.67 14.01 -9.34 13.02 -9 12 C-8.34 12 -7.68 12 -7 12 C-7 11.34 -7 10.68 -7 10 C-9.31 10.66 -11.62 11.32 -14 12 C-13.67 11.34 -13.34 10.68 -13 10 C-9.9375 9.375 -9.9375 9.375 -7 9 C-7 8.34 -7 7.68 -7 7 C-6.01 7 -5.02 7 -4 7 C-4 6.34 -4 5.68 -4 5 C-3.02149805 3.97895449 -2.02019573 2.9793879 -1 2 C-0.67 1.34 -0.34 0.68 0 0 Z " fill="#C8973E" transform="translate(284,272)"/>
<path d="M0 0 C0 0.99 0 1.98 0 3 C-0.928125 2.79375 -1.85625 2.5875 -2.8125 2.375 C-6.15173402 1.63307034 -6.15173402 1.63307034 -9 4 C-10.03393979 6.38601491 -10.07997581 7.65010584 -9.5 10.1875 C-7.99062773 12.39585944 -7.99062773 12.39585944 -4.375 12.75 C-3.26125 12.8325 -2.1475 12.915 -1 13 C-0.67 11.02 -0.34 9.04 0 7 C0.66 7.33 1.32 7.66 2 8 C2.125 10.375 2.125 10.375 2 13 C-0.64508959 15.64508959 -2.29971764 15.78233633 -6 16 C-10.56521739 13.86956522 -10.56521739 13.86956522 -12 11 C-12.35173852 7.20122401 -12.52701444 4.85639847 -10.5 1.5625 C-6.86353539 -0.71029038 -4.24217465 -0.28281164 0 0 Z " fill="#EAF1FB" transform="translate(230,303)"/>
<path d="M0 0 C3 1 3 1 4.60546875 4.16015625 C5.14390274 5.45638622 5.67083429 6.75744068 6.1875 8.0625 C6.46013672 8.72572266 6.73277344 9.38894531 7.01367188 10.07226562 C7.6856086 11.71084817 8.34409628 13.35493403 9 15 C8.01 14.67 7.02 14.34 6 14 C6 13.34 6 12.68 6 12 C4.56344146 11.91868537 3.1255517 11.86066441 1.6875 11.8125 C0.88699219 11.77769531 0.08648437 11.74289062 -0.73828125 11.70703125 C-3.47851584 12.06198392 -4.29171079 12.89366282 -6 15 C-4.36041242 9.76727367 -2.61047965 4.84803364 0 0 Z M0 3 C-0.66 5.31 -1.32 7.62 -2 10 C-0.02 10 1.96 10 4 10 C3.34 7.69 2.68 5.38 2 3 C1.34 3 0.68 3 0 3 Z " fill="#F4FAFE" transform="translate(207,303)"/>
<path d="M0 0 C0 0.66 0 1.32 0 2 C-0.99 2.495 -0.99 2.495 -2 3 C-2.33 3.99 -2.66 4.98 -3 6 C-8.26618704 8.90758589 -12.50284186 9.39925816 -18.4375 9.1875 C-19.53481445 9.16719727 -19.53481445 9.16719727 -20.65429688 9.14648438 C-22.43652422 9.11153874 -24.21836573 9.05774805 -26 9 C-26 8.67 -26 8.34 -26 8 C-24.89591797 7.94392578 -24.89591797 7.94392578 -23.76953125 7.88671875 C-16.40183232 7.4358522 -16.40183232 7.4358522 -10 4 C-3.53846154 0 -3.53846154 0 0 0 Z " fill="#C9902F" transform="translate(277,282)"/>
<path d="M0 0 C4.60853797 0.72008406 8.67237409 2.31295939 13 4 C13 4.33 13 4.66 13 5 C12.39003174 5.02505615 11.78006348 5.0501123 11.15161133 5.07592773 C8.37172102 5.1924058 5.5921266 5.31489632 2.8125 5.4375 C1.85279297 5.47681641 0.89308594 5.51613281 -0.09570312 5.55664062 C-1.02705078 5.59853516 -1.95839844 5.64042969 -2.91796875 5.68359375 C-3.77156982 5.72025146 -4.6251709 5.75690918 -5.50463867 5.79467773 C-8.06454594 6.00531094 -10.49333243 6.44841536 -13 7 C-12 5 -12 5 -9.78515625 4.1484375 C-8.88667969 3.89320313 -7.98820313 3.63796875 -7.0625 3.375 C-6.16660156 3.11460937 -5.27070313 2.85421875 -4.34765625 2.5859375 C-2 2 -2 2 0 2 C0 1.34 0 0.68 0 0 Z " fill="#E3A12D" transform="translate(256,226)"/>
<path d="M0 0 C6.30782486 0.41137988 11.71452158 2.4965986 17 6 C17.33 6.99 17.66 7.98 18 9 C17.35675781 8.7834375 16.71351563 8.566875 16.05078125 8.34375 C8.56932522 6.03847967 1.79612941 5.66534898 -6 6 C-6 5.34 -6 4.68 -6 4 C-0.555 3.505 -0.555 3.505 5 3 C2.525 2.01 2.525 2.01 0 1 C0 0.67 0 0.34 0 0 Z " fill="#DDB65A" transform="translate(261,227)"/>
<path d="M0 0 C3.73020806 1.72802512 6.69921681 4.01528176 9.90234375 6.5625 C14.21845723 9.52028354 18.13948518 10.2839221 23.3125 10.625 C24.91544922 10.73714844 24.91544922 10.73714844 26.55078125 10.8515625 C27.35902344 10.90054687 28.16726563 10.94953125 29 11 C29 11.33 29 11.66 29 12 C18.61295754 12.53880912 10.75306401 11.83537601 2 6 C0.8125 2.875 0.8125 2.875 0 0 Z " fill="#CCA648" transform="translate(234,280)"/>
<path d="M0 0 C1.13480527 3.60993172 1.10015767 6.9842327 1.0625 10.75 C1.05347656 11.92046875 1.04445312 13.0909375 1.03515625 14.296875 C1.02355469 15.18890625 1.01195312 16.0809375 1 17 C1.33 13.7 1.66 10.4 2 7 C2.33 7 2.66 7 3 7 C3.33 11.62 3.66 16.24 4 21 C3.01 20.67 2.02 20.34 1 20 C0.67 20.99 0.34 21.98 0 23 C-2.10428384 17.87080814 -2.21755666 13.4389165 -2 8 C-2.66 8 -3.32 8 -4 8 C-4 7.34 -4 6.68 -4 6 C-3.01 6 -2.02 6 -1 6 C-0.67 4.02 -0.34 2.04 0 0 Z " fill="#EAC447" transform="translate(228,247)"/>
<path d="M0 0 C0.66 0.33 1.32 0.66 2 1 C1.67 1.66 1.34 2.32 1 3 C0.071875 2.79375 -0.85625 2.5875 -1.8125 2.375 C-5.15173402 1.63307034 -5.15173402 1.63307034 -8 4 C-8.5 7.5 -8.5 7.5 -8 11 C-4.1496895 13.56687367 -2.41430237 12.83288724 2 12 C1.67 12.99 1.34 13.98 1 15 C-6.22891566 15.48192771 -6.22891566 15.48192771 -9.5 13.4375 C-11.58392818 10.05111671 -11.55802097 7.90614682 -11 4 C-8.0811897 -0.55334407 -5.14435411 -0.47632908 0 0 Z " fill="#F2F5FC" transform="translate(282,303)"/>
<path d="M0 0 C6.27 0 12.54 0 19 0 C19 0.33 19 0.66 19 1 C13.06 1 7.12 1 1 1 C1 9.91 1 18.82 1 28 C2.98 27.67 4.96 27.34 7 27 C7 27.66 7 28.32 7 29 C4.69 29.33 2.38 29.66 0 30 C-1.42336877 27.15326245 -1.00758837 24.85384653 -0.87890625 21.6796875 C-0.83056641 20.42285156 -0.78222656 19.16601562 -0.73242188 17.87109375 C-0.67634766 16.55238281 -0.62027344 15.23367188 -0.5625 13.875 C-0.50927587 12.53517562 -0.45653549 11.19533192 -0.40429688 9.85546875 C-0.27430107 6.5701203 -0.13775941 3.28503207 0 0 Z " fill="#E4CA61" transform="translate(168,245)"/>
<path d="M0 0 C0 0.66 0 1.32 0 2 C-3.08686658 3.49666258 -5.02278316 3.99959316 -8.5 3.9375 C-13.46437142 4.02614949 -15.74724499 5.74724499 -19.1875 9.1875 C-19.785625 9.785625 -20.38375 10.38375 -21 11 C-21.66 11 -22.32 11 -23 11 C-23.66 12.65 -24.32 14.3 -25 16 C-25.33 15.34 -25.66 14.68 -26 14 C-24.07826847 8.432802 -18.6681789 5.19179702 -14 2 C-9.21300977 0.05274974 -5.14305641 -0.20992067 0 0 Z " fill="#F5D557" transform="translate(255,231)"/>
<path d="M0 0 C-0.33 1.98 -0.66 3.96 -1 6 C-5.29 5.34 -9.58 4.68 -14 4 C-14 3.67 -14 3.34 -14 3 C-11.69 3 -9.38 3 -7 3 C-7.33 1.68 -7.66 0.36 -8 -1 C-4.59745511 -2.2151946 -3.06748874 -1.86240388 0 0 Z " fill="#EECC4C" transform="translate(221,246)"/>
<path d="M0 0 C-0.33 1.32 -0.66 2.64 -1 4 C-2.62414378 4.19477739 -4.24936423 4.38059458 -5.875 4.5625 C-6.77992187 4.66691406 -7.68484375 4.77132813 -8.6171875 4.87890625 C-11 5 -11 5 -13 4 C-13 3.01 -13 2.02 -13 1 C-11.58366664 0.83052421 -10.16691467 0.66454493 -8.75 0.5 C-7.56664063 0.36078125 -7.56664063 0.36078125 -6.359375 0.21875 C-4 0 -4 0 0 0 Z " fill="#FBD336" transform="translate(113,269)"/>
<path d="M0 0 C3.99996286 1.33332095 4.83782337 3.4957827 7 7 C8.65 4.69 10.3 2.38 12 0 C12.33 0.66 12.66 1.32 13 2 C12.01182658 3.71283393 11.01945458 5.42360402 9.9921875 7.11328125 C8.64714545 9.67097932 8.27851861 12.1451842 8 15 C7.34 15 6.68 15 6 15 C5.7525 14.01 5.505 13.02 5.25 12 C4.04187859 7.71904804 2.09178706 3.90940785 0 0 Z " fill="#EDF1FC" transform="translate(286,303)"/>
<path d="M0 0 C-5.61663358 5.92023539 -5.61663358 5.92023539 -10.91796875 6.09765625 C-12.53638672 6.08025391 -12.53638672 6.08025391 -14.1875 6.0625 C-15.81751953 6.04896484 -15.81751953 6.04896484 -17.48046875 6.03515625 C-18.31191406 6.02355469 -19.14335937 6.01195312 -20 6 C-20 5.67 -20 5.34 -20 5 C-10.58997722 2.88838269 -10.58997722 2.88838269 -6 2 C-6 1.34 -6 0.68 -6 0 C-3.50907189 -1.24546405 -2.58919267 -0.7767578 0 0 Z " fill="#EFCA53" transform="translate(270,284)"/>
<path d="M0 0 C1.15810065 2.31620131 1.50512238 4.46375217 2 7 C2.33 7.99 2.66 8.98 3 10 C3.12781786 12.67394964 3.04391871 15.32095857 3 18 C2.34 18 1.68 18 1 18 C-1.23157731 14.42771221 -1.23870158 11.46913776 -1.1875 7.3125 C-1.18105469 6.15363281 -1.17460937 4.99476563 -1.16796875 3.80078125 C-1 1 -1 1 0 0 Z " fill="#E0A839" transform="translate(235,252)"/>
<path d="M0 0 C2 2 2 2 2.125 5.625 C2.08375 6.73875 2.0425 7.8525 2 9 C2.66 9.33 3.32 9.66 4 10 C4.99 11.485 4.99 11.485 6 13 C4.02 13.33 2.04 13.66 0 14 C0 9.38 0 4.76 0 0 Z M5 7 C6.65 7.33 8.3 7.66 10 8 C10 8.33 10 8.66 10 9 C8.02 9 6.04 9 4 9 C4.33 8.34 4.66 7.68 5 7 Z " fill="#EED055" transform="translate(123,261)"/>
<path d="M0 0 C2.36120297 0.25392418 4.7150539 0.57798123 7.0625 0.9375 C8.35285156 1.13214844 9.64320313 1.32679688 10.97265625 1.52734375 C11.97167969 1.68332031 12.97070312 1.83929688 14 2 C14 2.66 14 3.32 14 4 C9.38 4.33 4.76 4.66 0 5 C-0.33 3.68 -0.66 2.36 -1 1 C-0.67 0.67 -0.34 0.34 0 0 Z " fill="#FCD330" transform="translate(201,269)"/>
<path d="M0 0 C-3.96 1.98 -3.96 1.98 -8 4 C-8 3.34 -8 2.68 -8 2 C-9.98 2.33 -11.96 2.66 -14 3 C-14 3.66 -14 4.32 -14 5 C-15.65 5.33 -17.3 5.66 -19 6 C-17.4375 3.5625 -17.4375 3.5625 -15 1 C-11.5625 0.25 -11.5625 0.25 -8 0 C-7.0925 -0.20625 -6.185 -0.4125 -5.25 -0.625 C-3 -1 -3 -1 0 0 Z " fill="#EFDB70" transform="translate(255,234)"/>
<path d="M0 0 C0 0.99 0 1.98 0 3 C-0.33 3.33 -0.66 3.66 -1 4 C-0.34 4.66 0.32 5.32 1 6 C-0.98 6 -2.96 6 -5 6 C-5 6.66 -5 7.32 -5 8 C-8.3 8 -11.6 8 -15 8 C-13 6 -13 6 -9.875 5.875 C-8.92625 5.91625 -7.9775 5.9575 -7 6 C-7 5.34 -7 4.68 -7 4 C-6.1028125 3.8453125 -6.1028125 3.8453125 -5.1875 3.6875 C-2.71756736 2.91123545 -1.67748765 1.92911079 0 0 Z " fill="#FBD42C" transform="translate(189,257)"/>
<path d="M0 0 C1.32 0.33 2.64 0.66 4 1 C2.71034824 2.37562854 1.37310707 3.70766393 0 5 C-0.66 5 -1.32 5 -2 5 C-2.20496094 5.61488281 -2.40992188 6.22976562 -2.62109375 6.86328125 C-3.74739583 10.2421875 -4.87369792 13.62109375 -6 17 C-6.66 17 -7.32 17 -8 17 C-7.04687483 9.90086082 -4.67368728 5.39384664 0 0 Z " fill="#D4AF4F" transform="translate(233,236)"/>
<path d="M0 0 C0 1.65 0 3.3 0 5 C-2.31 5.33 -4.62 5.66 -7 6 C-7 5.34 -7 4.68 -7 4 C-7.99 3.67 -8.98 3.34 -10 3 C-4 0 -4 0 0 0 Z " fill="#F4D142" transform="translate(144,269)"/>
<path d="M0 0 C4.83691236 0.44994534 7.58648184 1.48895275 11 5 C11.9375 7.5625 11.9375 7.5625 12 10 C11.01 11.485 11.01 11.485 10 13 C10 10.69 10 8.38 10 6 C9.01 6.33 8.02 6.66 7 7 C6.34 6.34 5.68 5.68 5 5 C5 4.01 5 3.02 5 2 C3.35 1.67 1.7 1.34 0 1 C0 0.67 0 0.34 0 0 Z " fill="#EECF54" transform="translate(211,257)"/>
<path d="M0 0 C6.875 0.875 6.875 0.875 8 2 C11.22560074 2.1743568 13.89744411 1.82734824 17 1 C17.99 1 18.98 1 20 1 C20 1.66 20 2.32 20 3 C14.40191786 4.86602738 8.32737362 4.85898614 2.875 2.5 C1.451875 1.7575 1.451875 1.7575 0 1 C0 0.67 0 0.34 0 0 Z " fill="#CFBB52" transform="translate(243,282)"/>
<path d="M0 0 C0.66 0.495 1.32 0.99 2 1.5 C6.06168997 3.53084499 8.47338043 3.35925552 13 3 C15.40557853 2.13734032 15.40557853 2.13734032 17 1 C17.99 1.66 18.98 2.32 20 3 C19.67 3.99 19.34 4.98 19 6 C18.67 5.34 18.34 4.68 18 4 C16.55367187 4.28617187 16.55367187 4.28617187 15.078125 4.578125 C13.81484375 4.79984375 12.5515625 5.0215625 11.25 5.25 C9.99703125 5.48203125 8.7440625 5.7140625 7.453125 5.953125 C4 6 4 6 1.546875 4.171875 C0 2 0 2 0 0 Z " fill="#EBD15F" transform="translate(95,265)"/>
<path d="M0 0 C3 1 3 1 4.0625 3 C4.371875 3.66 4.68125 4.32 5 5 C5.66 5.33 6.32 5.66 7 6 C8.1875 7.875 8.1875 7.875 9 10 C8.67 10.99 8.34 11.98 8 13 C4.15383526 8.91193811 1.36410449 5.59282842 0 0 Z " fill="#C89738" transform="translate(227,272)"/>
<path d="M0 0 C0 2 0 2 -1.20703125 3.55078125 C-3.36220519 5.2927628 -4.97895327 5.67719409 -7.6875 6.1875 C-8.49574219 6.34605469 -9.30398438 6.50460937 -10.13671875 6.66796875 C-11.05904297 6.83232422 -11.05904297 6.83232422 -12 7 C-8.85235503 2.39959581 -5.75710034 0 0 0 Z " fill="#E19E2A" transform="translate(277,282)"/>
<path d="M0 0 C3.73487777 0.4979837 5.81237635 0.87491756 9 3 C9 3.99 9 4.98 9 6 C8.34 6 7.68 6 7 6 C7 6.66 7 7.32 7 8 C5.68 7.67 4.36 7.34 3 7 C3 6.01 3 5.02 3 4 C3.66 3.67 4.32 3.34 5 3 C2.525 2.01 2.525 2.01 0 1 C0 0.67 0 0.34 0 0 Z " fill="#EDCE5B" transform="translate(106,245)"/>
<path d="M0 0 C-0.66 0 -1.32 0 -2 0 C-2.433125 1.7015625 -2.433125 1.7015625 -2.875 3.4375 C-3.24625 4.613125 -3.6175 5.78875 -4 7 C-4.99 7.495 -4.99 7.495 -6 8 C-7.35439668 5.29120665 -7.06501451 2.99066732 -7 0 C-3.86650268 -1.04449911 -3.01031744 -0.93423645 0 0 Z " fill="#FCD32D" transform="translate(208,248)"/>
<path d="M0 0 C2.42130331 3.63195496 2.21022785 5.38349348 2.125 9.6875 C2.10695312 10.86699219 2.08890625 12.04648437 2.0703125 13.26171875 C2.03550781 14.61716797 2.03550781 14.61716797 2 16 C1.01 15.67 0.02 15.34 -1 15 C-1.02693575 12.87506859 -1.04636628 10.75004088 -1.0625 8.625 C-1.07410156 7.44164062 -1.08570313 6.25828125 -1.09765625 5.0390625 C-1 2 -1 2 0 0 Z " fill="#F5DE23" transform="translate(59,251)"/>
<path d="M0 0 C0.33 0.99 0.66 1.98 1 3 C-4.22270869 5.66464729 -7.0819503 6.32854177 -13 5 C-12.67 4.34 -12.34 3.68 -12 3 C-9.27734375 2.5859375 -9.27734375 2.5859375 -5.9375 2.375 C-4.83277344 2.30023438 -3.72804688 2.22546875 -2.58984375 2.1484375 C-1.73519531 2.09945313 -0.88054687 2.05046875 0 2 C0 1.34 0 0.68 0 0 Z " fill="#F5E46B" transform="translate(263,283)"/>
<path d="M0 0 C3.4375 1.3125 3.4375 1.3125 7 3 C7.33 3.99 7.66 4.98 8 6 C2.58461538 6.36923077 2.58461538 6.36923077 -0.375 4.5 C-0.91125 4.005 -1.4475 3.51 -2 3 C-1.34 2.67 -0.68 2.34 0 2 C0 1.34 0 0.68 0 0 Z " fill="#BB9939" transform="translate(249,279)"/>
<path d="M0 0 C0.66 0 1.32 0 2 0 C2.48990279 5.06232884 0.7106322 9.32630846 -1 14 C-1.33 14 -1.66 14 -2 14 C-2 10.37 -2 6.74 -2 3 C-1.34 3 -0.68 3 0 3 C0 2.01 0 1.02 0 0 Z " fill="#C0952C" transform="translate(234,247)"/>
<path d="M0 0 C0.66 0 1.32 0 2 0 C2 2.64 2 5.28 2 8 C0.68 8 -0.64 8 -2 8 C-2.125 5.125 -2.125 5.125 -2 2 C-1.34 1.34 -0.68 0.68 0 0 Z " fill="#FBD22E" transform="translate(219,263)"/>
<path d="M0 0 C0.99 0 1.98 0 3 0 C2.50168276 3.68754757 1.89932357 5.60490662 -1 8 C-1 7.34 -1 6.68 -1 6 C-1.99 5.67 -2.98 5.34 -4 5 C-3.525625 4.54625 -3.05125 4.0925 -2.5625 3.625 C-0.90972192 2.06741796 -0.90972192 2.06741796 0 0 Z " fill="#B5B273" transform="translate(284,272)"/>
<path d="M0 0 C3.465 1.98 3.465 1.98 7 4 C7 4.66 7 5.32 7 6 C3.37 5.01 -0.26 4.02 -4 3 C-2.68 2.67 -1.36 2.34 0 2 C0 1.34 0 0.68 0 0 Z " fill="#C1BB88" transform="translate(272,230)"/>
<path d="M0 0 C0.99 0.33 1.98 0.66 3 1 C3.33 3.31 3.66 5.62 4 8 C2.68 7.34 1.36 6.68 0 6 C0 4.02 0 2.04 0 0 Z " fill="#FADD61" transform="translate(229,267)"/>
<path d="M0 0 C0.66 0.33 1.32 0.66 2 1 C1.01 2.485 1.01 2.485 0 4 C-0.66 4 -1.32 4 -2 4 C-2.99 7.465 -2.99 7.465 -4 11 C-4.33 11 -4.66 11 -5 11 C-5.3125 8.3125 -5.3125 8.3125 -5 5 C-2.5 2.125 -2.5 2.125 0 0 Z " fill="#C6A858" transform="translate(244,239)"/>
<path d="M0 0 C0.66 0.33 1.32 0.66 2 1 C3.27536232 6.44927536 3.27536232 6.44927536 2 9 C0.68 8.34 -0.64 7.68 -2 7 C-1.67 6.01 -1.34 5.02 -1 4 C-0.67 4.33 -0.34 4.66 0 5 C0 3.35 0 1.7 0 0 Z " fill="#EDCC52" transform="translate(232,269)"/>
<path d="M0 0 C-0.33 0.99 -0.66 1.98 -1 3 C-2.875 3.625 -2.875 3.625 -5 4 C-5.99 4.33 -6.98 4.66 -8 5 C-7.67 3.68 -7.34 2.36 -7 1 C-4.50935112 0.31292445 -2.62113708 0 0 0 Z " fill="#FAD725" transform="translate(140,268)"/>
<path d="M0 0 C0 0.99 0 1.98 0 3 C-1.0828125 3.185625 -1.0828125 3.185625 -2.1875 3.375 C-4.95721894 3.9904931 -7.3970354 4.88444374 -10 6 C-9.34 5.01 -8.68 4.02 -8 3 C-7.34 3 -6.68 3 -6 3 C-6 2.34 -6 1.68 -6 1 C-4 0 -4 0 0 0 Z " fill="#D5B84C" transform="translate(247,236)"/>
<path d="M0 0 C-0.33 1.32 -0.66 2.64 -1 4 C-1.66 4 -2.32 4 -3 4 C-3.33 4.66 -3.66 5.32 -4 6 C-4 5.01 -4 4.02 -4 3 C-4.66 3 -5.32 3 -6 3 C-6 2.34 -6 1.68 -6 1 C-3 0 -3 0 0 0 Z " fill="#BBA148" transform="translate(283,278)"/>
<path d="M0 0 C-2.90092502 1.93395001 -3.89674737 2.30131941 -7.1875 2.625 C-8.445625 2.74875 -9.70375 2.8725 -11 3 C-7.6562111 -0.84535724 -4.83651161 -1.55459302 0 0 Z " fill="#EED053" transform="translate(213,245)"/>
<path d="M0 0 C0.66 0.33 1.32 0.66 2 1 C0.625 2.5 0.625 2.5 -1 4 C-1.66 4 -2.32 4 -3 4 C-3.66 5.32 -4.32 6.64 -5 8 C-5.33 6.68 -5.66 5.36 -6 4 C-4.02 2.68 -2.04 1.36 0 0 Z " fill="#BD9830" transform="translate(243,238)"/>
<path d="M0 0 C1.98 0 3.96 0 6 0 C6 0.99 6 1.98 6 3 C4.02 3 2.04 3 0 3 C0 2.01 0 1.02 0 0 Z " fill="#FCD42A" transform="translate(210,259)"/>
<path d="M0 0 C3.36591866 1.44253657 5.51047079 3.33264727 8 6 C6.02 6 4.04 6 2 6 C1.34 4.02 0.68 2.04 0 0 Z " fill="#E7B335" transform="translate(234,280)"/>
<path d="M0 0 C0.66 0.66 1.32 1.32 2 2 C1.34 2 0.68 2 0 2 C0 1.34 0 0.68 0 0 Z " fill="#D1D15A" transform="translate(78,266)"/>
<path d="" fill="#FFFFFF" transform="translate(0,0)"/>
</svg>
